<?xml version="1.0" encoding="UTF-8"?>
<svg width="158px" height="73px" viewBox="0 0 158 73" version="1.1" xmlns="http://www.w3.org/2000/svg" xmlns:xlink="http://www.w3.org/1999/xlink">
    <!-- Generator: Sketch 45.2 (43514) - http://www.bohemiancoding.com/sketch -->
    <title>Customer Books</title>
    <desc>Created with Sketch.</desc>
    <defs></defs>
    <g id="Page-1" stroke="none" stroke-width="1" fill="none" fill-rule="evenodd">
        <g id="Customer-Books">
            <path d="M83.5,6.3460699 L92.8068779,12.1076463 L97.2045898,16.8596895 L97.2045898,34.1235463 L83.5,42.0590932 L83.5,49 C83.5,50.3807119 84.6192881,51.5 86,51.5 L153,51.5 C154.380712,51.5 155.5,50.3807119 155.5,49 L155.5,4 C155.5,2.61928813 154.380712,1.5 153,1.5 L86,1.5 C84.6192881,1.5 83.5,2.61928813 83.5,4 L83.5,6.3460699 Z" id="Rectangle-3" stroke="#1D3776" stroke-width="3"></path>
            <path d="M122.484723,53.0368714 C121.599836,53.0439481 120.35387,53.0423705 118.754066,53.0346248 C118.033799,53.0311376 117.272912,53.026421 116.442057,53.0204986 C116.269303,53.0192672 115.640399,53.0144373 115.020055,53.0097753 C116.031906,56.7292394 115.189382,60.6008992 112.539232,64.5565921 L112.242167,65 L98.5,65 C96.5670034,65 95,66.5670034 95,68.5 L95,72 L144,72 L144,68.5 C144,66.5670034 142.432997,65 140.5,65 L126.617766,65 L126.319297,64.6628587 C122.815061,60.7045835 121.504766,56.7999416 122.484723,53.0368714 Z" id="Combined-Shape" stroke="#1D3776" stroke-width="2"></path>
            <path d="" id="Path-2" stroke="#979797"></path>
            <path d="M75.3674918,70.0634486 L64.4769044,38.1150652 C64.4769044,18.9532515 64.4769044,7.29528279 64.4769044,3.14115908 C64.4769044,-1.01296463 58.6939597,-7.15201983 47.1280703,-15.2760065 C30.8517858,-18.1698563 23.3471504,-10.7492328 24.614164,6.98586381 C25.7758073,20.7658731 29.1157459,31.1422736 34.6339799,38.1150652 L39.1155721,65.8752863" id="Path-3" stroke="#1D3776" stroke-width="2" transform="translate(49.922198, 27.089257) scale(-1, 1) rotate(-61.000000) translate(-49.922198, -27.089257) "></path>
            <path d="M67,30.4888976 L67,41.549 C67,43.4549347 68.5450653,45 70.451,45 L114.549,45 C116.454935,45 118,43.4549347 118,41.549 L118,41.549 L118,15.451 C118,13.5450653 116.454935,12 114.549,12 L114.549,12 L70.451,12 L70.451,12 C70.2664397,12 70.0852632,12.014488 69.9085459,12.0423886 C78.2706922,15.3025584 83.6406876,17.4494635 86.0185322,18.4831039 C87.3342251,19.0550308 88.3765775,19.5336387 89.1455894,19.9189274 C94.0800943,22.3912029 94.9488999,23.7294114 92.7586713,27.6672066 C90.5684427,31.6050018 88.0505302,32.2707407 84.6959033,31.4269371 C82.4594854,30.8644013 78.1491081,29.0296106 71.7647715,25.9225648 C70.2977409,27.9177869 68.7094837,29.4398978 67,30.4888976 Z" id="Combined-Shape" stroke="#1D3776" stroke-width="2" fill="#FFFFFF"></path>
            <polygon id="Rectangle-2" fill="#1D3776" points="87 19 117.88669 19 117.88669 26.2794118 94.3818359 26.2794118 93.3603516 22.5652574"></polygon>
            <path d="M86.4654297,23.99096 C77.4703987,15.360226 71.7990225,10.0061105 69.451301,7.92861363 C68.3769234,6.9778977 67.5026403,6.23547403 66.8284516,5.70134262 C62.5023972,2.27399116 60.9223953,2.05213716 58.2791714,5.70134262 C55.6359475,9.35054807 56.096699,11.9139051 58.2791714,14.5976228 C59.734153,16.3867679 63.2186823,19.5178803 68.7327592,23.99096 C64.6881653,31.3865269 66.2046683,37.7385342 73.2822682,43.046982" id="Path-4-Copy" stroke="#1D3776" stroke-width="3" transform="translate(71.465430, 23.046982) scale(-1, 1) rotate(-65.000000) translate(-71.465430, -23.046982) "></path>
        </g>
    </g>
</svg>