<?xml version="1.0" encoding="UTF-8"?>
<svg width="182px" height="72px" viewBox="0 0 182 72" version="1.1" xmlns="http://www.w3.org/2000/svg" xmlns:xlink="http://www.w3.org/1999/xlink">
    <!-- Generator: Sketch 45.2 (43514) - http://www.bohemiancoding.com/sketch -->
    <title>Booking Collects</title>
    <desc>Created with Sketch.</desc>
    <defs>
        <rect id="path-1" x="0" y="0" width="51" height="33" rx="3.451"></rect>
        <rect id="path-2" x="0" y="0" width="51" height="33" rx="3.451"></rect>
        <rect id="path-3" x="0" y="0" width="51" height="33" rx="3.451"></rect>
        <polygon id="path-4" points="0.016621362 71.1782124 0.016621362 0.135741123 70.9178111 0.135741123 70.9178111 71.1782124"></polygon>
    </defs>
    <g id="Page-1" stroke="none" stroke-width="1" fill="none" fill-rule="evenodd">
        <g id="Booking-Collects">
            <g id="Group-Copy-4" transform="translate(89.098930, 28.226442) rotate(-20.000000) translate(-89.098930, -28.226442) translate(63.598930, 11.726442)">
                <g id="Rectangle">
                    <use fill="#FFFFFF" fill-rule="evenodd" xlink:href="#path-1"></use>
                    <rect stroke="#1D3776" stroke-width="2" x="1" y="1" width="49" height="31" rx="3.451"></rect>
                </g>
                <rect id="Rectangle-2" fill="#1D3776" x="0.495145631" y="6.79411765" width="50.0097087" height="7.27941176"></rect>
            </g>
            <g id="Group-Copy-5" transform="translate(114.317633, 46.851002) rotate(22.000000) translate(-114.317633, -46.851002) translate(88.817633, 30.351002)">
                <g id="Rectangle">
                    <use fill="#FFFFFF" fill-rule="evenodd" xlink:href="#path-2"></use>
                    <rect stroke="#1D3776" stroke-width="2" x="1" y="1" width="49" height="31" rx="3.451"></rect>
                </g>
                <rect id="Rectangle-2" fill="#1D3776" x="0.495145631" y="6.79411765" width="50.0097087" height="7.27941176"></rect>
            </g>
            <g id="Group-Copy-6" transform="translate(29.500000, 38.445284) rotate(24.000000) translate(-29.500000, -38.445284) translate(4.000000, 21.945284)">
                <g id="Rectangle">
                    <use fill="#FFFFFF" fill-rule="evenodd" xlink:href="#path-3"></use>
                    <rect stroke="#1D3776" stroke-width="2" x="1" y="1" width="49" height="31" rx="3.451"></rect>
                </g>
                <rect id="Rectangle-2" fill="#1D3776" x="0.495145631" y="6.79411765" width="50.0097087" height="7.27941176"></rect>
            </g>
            <g id="booking-stamp-logo-copy" transform="translate(111.493436, 0.000000)">
                <g id="Group-3">
                    <mask id="mask-5" fill="white">
                        <use xlink:href="#path-4"></use>
                    </mask>
                    <g id="Clip-2"></g>
                    <path d="M70.916426,12.6017626 C70.916426,5.72162684 65.3338646,0.135741123 58.4504045,0.135741123 L12.4654674,0.135741123 C5.5820074,0.135741123 0,5.72162684 0,12.6017626 L0.00470938589,52.3254326 L0.00470938589,58.7315826 L0,71.1948338 L58.4520666,71.1948338 C65.3385739,71.1948338 70.916426,65.6147656 70.9178111,58.7315826 L70.916426,12.6017626" id="Fill-1" fill="#253D68" mask="url(#mask-5)"></path>
                </g>
                <path d="M47.2066072,49.8715655 C47.2066072,47.4140972 49.1909208,45.4234121 51.6356461,45.4234121 C54.0867429,45.4234121 56.0799213,47.4140972 56.0799213,49.8715655 C56.0799213,52.3273718 54.0867429,54.3208271 51.6356461,54.3208271 C49.1909208,54.3208271 47.2066072,52.3273718 47.2066072,49.8715655" id="Fill-4" fill="#2892C5"></path>
                <path d="M31.3440104,47.6445801 L25.140087,47.6382085 L25.140087,40.2212028 C25.140087,38.6363559 25.7553544,37.8113823 27.1105495,37.624115 L31.3440104,37.624115 C34.366328,37.624115 36.3132436,39.5297541 36.318507,42.6077533 C36.3132436,45.7671972 34.4117598,47.6445801 31.3440104,47.6445801 Z M25.140087,27.6363386 L25.140087,25.6830515 C25.140087,23.9727134 25.859792,23.1599288 27.4493482,23.0593695 L30.6259675,23.0593695 C33.3496547,23.0593695 34.976609,24.6863238 34.976609,27.4111191 C34.976609,29.4887894 33.8607616,31.9182784 30.7270808,31.9182784 L25.140087,31.9182784 L25.140087,27.6363386 Z M39.2687987,35.0400472 L38.1454717,34.4081585 L39.1269631,33.5685027 C40.2655264,32.5939368 42.1747669,30.3918834 42.1747669,26.5855915 C42.1747669,20.7664526 37.6573577,17.0103018 30.6750006,17.0103018 L21.7936528,17.0103018 C19.7223541,17.0875912 18.0663124,18.7735513 18.0444276,20.8539918 L18.0444276,53.8820232 L21.7044515,53.8820232 C21.7113771,53.8850704 21.7130392,53.8820232 21.7177486,53.8850704 L30.8326265,53.8820232 C38.5997889,53.8820232 43.6130687,49.6546568 43.6130687,43.1077793 C43.6130687,39.5865438 41.9891617,36.5717057 39.2687987,35.0400472 L39.2687987,35.0400472 Z" id="Fill-5" fill="#FFFFFE"></path>
            </g>
        </g>
    </g>
</svg>