<?xml version="1.0" encoding="UTF-8"?>
<svg width="165px" height="70px" viewBox="0 0 165 70" version="1.1" xmlns="http://www.w3.org/2000/svg" xmlns:xlink="http://www.w3.org/1999/xlink">
    <!-- Generator: Sketch 45.2 (43514) - http://www.bohemiancoding.com/sketch -->
    <title>You Get Paid</title>
    <desc>Created with Sketch.</desc>
    <defs></defs>
    <g id="Page-1" stroke="none" stroke-width="1" fill="none" fill-rule="evenodd">
        <g id="You-Get-Paid">
            <path d="M163.718972,36.9734243 L129.256082,29.2624868 C126.474181,21.0691274 122.686095,16.3637238 117.891824,15.1462759 C113.097553,13.928828 107.664773,12.6840363 101.593484,11.4119009 C95.8353462,10.2660675 92.9709256,11.5108592 93.0002225,15.1462759 C93.0441678,20.5994009 95.7324002,22.8923696 101.070291,22.8923696 C104.628885,22.8923696 107.299864,23.5596873 109.08323,24.8943227 C103.680235,26.8129425 101.465717,30.6505076 102.439676,36.4070181" id="Path-6-Copy" stroke="#1D3776" stroke-width="3"></path>
            <path d="M106.979492,23.734375 L74,17" id="Path-7-Copy" stroke="#1D3776" stroke-width="2"></path>
            <path d="M91.1650391,31.6843262 L71,28" id="Path-8-Copy" stroke="#1D3776" stroke-width="2"></path>
            <path d="M89.7924805,42.4963379 L75,39" id="Path-9-Copy" stroke="#1D3776" stroke-width="2"></path>
            <path d="M87.5268555,52.1669922 L73,49" id="Path-10-Copy" stroke="#1D3776" stroke-width="2"></path>
            <path d="M152.452881,65.2788639 C135.159749,61.9066308 126.491292,60.1480859 126.44751,60.0032291 C126.381836,59.7859439 118.978516,70.6187076 102.35376,67.041315 C91.2705892,64.6563866 80.8193359,62.3947493 71,60.2564029" id="Path-11-Copy" stroke="#1D3776" stroke-width="2"></path>
            <g id="Group-5-Copy" transform="translate(2.000000, 2.000000)" stroke="#1D3776" fill="#FFFFFF">
                <path d="M1,49.3769531 L1,57.1992188 C41.4715374,57.2460937 65.715027,60.0418294 73.7304688,65.5864258 C73.2432626,53.659668 72.9996595,46.4734701 72.9996595,44.027832 L1,49.3769531 Z" id="Path-12-Copy" stroke-width="2"></path>
                <path d="M0,44.4370117 L0,52.1713867 C42.1154176,51.4741211 67.1808473,53.8977865 75.1962891,59.4423828 C74.7090829,47.515625 73.6435397,40.7014974 71.9996595,39 L0,44.4370117 Z" id="Path-12" stroke-width="2"></path>
                <path d="M0,2.60253906 L3.91334304e-16,45.1713867 C42.1154176,44.4741211 67.1808473,46.8977865 75.1962891,52.4423828 C74.4654798,34.5522461 75.2817383,22.6806641 75.1962891,8.71044922 C62.2480948,0.128430224 37.1826651,-1.90753983 0,2.60253906 Z" id="Path-12-Copy-2" stroke-width="3"></path>
            </g>
            <g id="Group-2-Copy" transform="translate(15.000000, 15.000000)">
                <circle id="Oval" stroke="#1D3776" stroke-width="3" cx="24.8953281" cy="11.0027409" r="9.5"></circle>
                <circle id="Oval-2" fill="#1D3776" cx="4.00137047" cy="11.052336" r="4"></circle>
                <circle id="Oval-2-Copy" fill="#1D3776" cx="45.947664" cy="13.0509655" r="4"></circle>
            </g>
        </g>
    </g>
</svg>